<svg xmlns="http://www.w3.org/2000/svg" viewBox="0 0 430 96" width="430" height="96" role="img" aria-label="looselips-guard">
  <!-- speech bubble, sealed shut -->
  <path fill="#fff" stroke="#30363d" stroke-width="2" d="M20 18h56a10 10 0 0 1 10 10v32a10 10 0 0 1-10 10H46L28 84V70h-8a10 10 0 0 1-10-10V28a10 10 0 0 1 10-10z"/>
  <!-- sealed red lips -->
  <path fill="#cf222e" d="M30 48q9-9 18-1 9-8 18 1-9 13-18 13-9 0-18-13z"/>
  <path d="M30 48q18 5 36 0" fill="none" stroke="#7d0a1b" stroke-width="2.5" stroke-linecap="round"/>
  <!-- guard: slash struck across the bubble -->
  <path d="M4 50 L94 44" stroke="#0d1117" stroke-width="8" stroke-linecap="round"/>
  <!-- wordmark -->
  <text x="104" y="58" font-family="ui-monospace,SFMono-Regular,Menlo,monospace" font-size="34" font-weight="700" fill="#e6edf3">loose<tspan fill="#f85149">lips</tspan>-guard</text>
</svg>
