<svg xmlns="http://www.w3.org/2000/svg" viewBox="0 0 320 96" width="320" height="96" role="img" aria-label="looselips">
  <style>
    .word { fill: #0d1117 }
    @media (prefers-color-scheme: dark) { .word { fill: #e6edf3 } }
  </style>
  <defs>
    <linearGradient id="g" x1="0" y1="0" x2="1" y2="1">
      <stop offset="0" stop-color="#2f81f7"/>
      <stop offset="1" stop-color="#1f6feb"/>
    </linearGradient>
  </defs>
  <!-- speech bubble, sealed shut -->
  <path d="M20 18h56a10 10 0 0 1 10 10v32a10 10 0 0 1-10 10H46L28 84V70h-8a10 10 0 0 1-10-10V28a10 10 0 0 1 10-10z" fill="url(#g)"/>
  <!-- padlock -->
  <path d="M40 40v-6a8 8 0 0 1 16 0v6" fill="none" stroke="#fff" stroke-width="4.5" stroke-linecap="round"/>
  <rect x="34" y="40" width="28" height="20" rx="4" fill="#fff"/>
  <circle cx="48" cy="49" r="3" fill="#1f6feb"/>
  <path d="M48 51v4" stroke="#1f6feb" stroke-width="3" stroke-linecap="round"/>
  <!-- wordmark -->
  <text x="104" y="58" font-family="ui-monospace,SFMono-Regular,Menlo,monospace" font-size="34" font-weight="700" class="word">loose<tspan fill="#1f6feb">lips</tspan></text>
</svg>
